<svg width="208" height="57" viewBox="0 0 208 57" fill="none" xmlns="http://www.w3.org/2000/svg">
<path d="M42.176 28.176C42.6667 28.176 43.0187 28.2827 43.232 28.496C43.4667 28.7093 43.584 28.9867 43.584 29.328C43.584 29.8827 43.4133 30.3733 43.072 30.8C42.752 31.2267 42.24 31.4507 41.536 31.472C39.8507 31.4933 38.336 31.3653 36.992 31.088C35.4987 34.2667 33.696 36.912 31.584 39.024C29.4933 41.1147 27.424 42.16 25.376 42.16C23.4987 42.16 22.0907 41.168 21.152 39.184C20.2133 37.1787 19.68 34.5013 19.552 31.152C18.272 34.864 16.8213 37.6267 15.2 39.44C13.6 41.2533 11.8933 42.16 10.08 42.16C8.032 42.16 6.48533 40.8907 5.44 38.352C4.39467 35.792 3.872 32.3573 3.872 28.048C3.872 24.912 4.14933 21.4667 4.704 17.712C4.85333 16.6453 5.12 15.9093 5.504 15.504C5.90933 15.0773 6.53867 14.864 7.392 14.864C8.032 14.864 8.52267 15.0027 8.864 15.28C9.22667 15.5573 9.408 16.0693 9.408 16.816C9.408 16.9653 9.38667 17.2533 9.344 17.68C8.704 22.0533 8.384 25.776 8.384 28.848C8.384 31.7067 8.62933 33.9147 9.12 35.472C9.61067 37.0293 10.272 37.808 11.104 37.808C11.8507 37.808 12.7467 37.0293 13.792 35.472C14.8587 33.8933 15.9147 31.568 16.96 28.496C18.0053 25.4027 18.8907 21.7227 19.616 17.456C19.7867 16.4747 20.096 15.8027 20.544 15.44C21.0133 15.056 21.6427 14.864 22.432 14.864C23.0933 14.864 23.5733 15.0133 23.872 15.312C24.192 15.5893 24.352 16.016 24.352 16.592C24.352 16.9333 24.3307 17.2 24.288 17.392C23.6907 20.8693 23.392 24.3467 23.392 27.824C23.392 30.192 23.4667 32.08 23.616 33.488C23.7867 34.896 24.096 35.9733 24.544 36.72C25.0133 37.4453 25.6853 37.808 26.56 37.808C27.584 37.808 28.7253 37.04 29.984 35.504C31.2427 33.9467 32.3947 32.016 33.44 29.712C32.1387 28.9013 31.1573 27.856 30.496 26.576C29.8347 25.2747 29.504 23.7813 29.504 22.096C29.504 20.4107 29.76 18.992 30.272 17.84C30.8053 16.6667 31.52 15.792 32.416 15.216C33.3333 14.64 34.3467 14.352 35.456 14.352C36.8213 14.352 37.8987 14.8427 38.688 15.824C39.4987 16.8053 39.904 18.1493 39.904 19.856C39.904 22.2667 39.3813 24.944 38.336 27.888C39.424 28.08 40.704 28.176 42.176 28.176ZM32.736 21.872C32.736 23.9627 33.408 25.5093 34.752 26.512C35.584 24.1227 36 22.1493 36 20.592C36 19.696 35.8827 19.0453 35.648 18.64C35.4133 18.2133 35.0933 18 34.688 18C34.112 18 33.6427 18.3413 33.28 19.024C32.9173 19.6853 32.736 20.6347 32.736 21.872ZM142.529 34.864C142.806 34.864 143.019 34.992 143.169 35.248C143.339 35.504 143.425 35.856 143.425 36.304C143.425 37.136 143.222 37.7973 142.817 38.288C141.793 39.5253 140.758 40.4853 139.713 41.168C138.667 41.8293 137.43 42.16 136.001 42.16C134.422 42.16 133.131 41.7013 132.129 40.784C131.126 39.8453 130.187 38.3947 129.312 36.432C128.673 35.024 128.139 33.9787 127.713 33.296C127.307 32.592 126.902 32.1013 126.497 31.824C126.091 31.5253 125.579 31.344 124.961 31.28L124.609 33.648C124.161 36.6987 123.286 38.896 121.985 40.24C120.705 41.584 118.934 42.256 116.673 42.256C115.201 42.256 113.889 41.904 112.737 41.2C111.606 40.4747 110.817 39.5573 110.368 38.448C110.219 38.064 110.145 37.648 110.145 37.2C110.145 36.56 110.294 36.0053 110.593 35.536C110.891 35.0667 111.275 34.832 111.745 34.832C112.022 34.832 112.257 34.9067 112.449 35.056C112.641 35.184 112.822 35.4187 112.993 35.76C113.654 36.9973 114.23 37.8613 114.721 38.352C115.233 38.8427 115.862 39.088 116.609 39.088C117.462 39.088 118.187 38.704 118.785 37.936C119.403 37.1467 119.841 35.9413 120.097 34.32L120.545 31.28H120.033C119.542 31.28 119.158 31.1413 118.881 30.864C118.603 30.5867 118.465 30.2027 118.465 29.712C118.465 29.1573 118.603 28.72 118.881 28.4C119.179 28.0587 119.542 27.888 119.969 27.888H121.025C121.174 26.8427 121.281 26.1173 121.345 25.712L122.337 18.512C121.782 18.448 121.259 18.416 120.769 18.416C118.955 18.416 117.579 18.736 116.641 19.376C115.702 19.9947 115.233 20.8907 115.233 22.064C115.233 22.5973 115.286 23.0347 115.393 23.376C115.521 23.696 115.681 24.0587 115.873 24.464C115.958 24.6347 116.001 24.8267 116.001 25.04C116.001 25.5093 115.777 25.9253 115.329 26.288C114.902 26.6293 114.422 26.8 113.889 26.8C113.206 26.8 112.705 26.5013 112.385 25.904C111.745 24.7733 111.424 23.5573 111.424 22.256C111.424 20.912 111.787 19.6853 112.513 18.576C113.259 17.4667 114.379 16.5813 115.873 15.92C117.366 15.2373 119.211 14.896 121.409 14.896C122.369 14.896 123.243 14.9493 124.033 15.056C124.843 15.1627 125.729 15.3653 126.689 15.664C127.734 15.984 128.257 16.5813 128.257 17.456C128.257 18.6293 127.755 19.216 126.753 19.216L125.505 27.824C128.001 27.568 130.027 26.5013 131.585 24.624C133.163 22.7253 134.475 20.1547 135.521 16.912C135.713 16.3147 136.033 15.856 136.481 15.536C136.95 15.216 137.537 15.056 138.241 15.056C138.838 15.056 139.297 15.1947 139.617 15.472C139.958 15.728 140.129 16.1013 140.129 16.592C140.129 16.7413 140.086 16.9867 140.001 17.328C138.934 20.848 137.409 23.6427 135.425 25.712C133.441 27.7813 131.275 29.1573 128.929 29.84C129.739 30.032 130.401 30.32 130.913 30.704C131.446 31.088 131.894 31.568 132.257 32.144C132.619 32.6987 133.035 33.4773 133.505 34.48C134.166 35.888 134.785 36.8907 135.361 37.488C135.937 38.064 136.609 38.352 137.377 38.352C138.059 38.352 138.71 38.128 139.329 37.68C139.947 37.2107 140.726 36.4213 141.665 35.312C141.921 35.0133 142.209 34.864 142.529 34.864Z" fill="#FF014F"/>
<path d="M44.6655 24.976C43.7695 24.976 43.0975 24.7733 42.6495 24.368C42.2015 23.9413 41.9775 23.3547 41.9775 22.608C41.9775 21.8613 42.2655 21.2427 42.8415 20.752C43.4388 20.24 44.1748 19.984 45.0495 19.984C45.8388 19.984 46.4788 20.176 46.9695 20.56C47.4602 20.944 47.7055 21.488 47.7055 22.192C47.7055 23.0453 47.4282 23.728 46.8735 24.24C46.3188 24.7307 45.5828 24.976 44.6655 24.976ZM44.4095 42.16C43.0228 42.16 42.0095 41.6693 41.3695 40.688C40.7508 39.7067 40.4415 38.4053 40.4415 36.784C40.4415 35.824 40.5588 34.5973 40.7935 33.104C41.0495 31.5893 41.3695 30.1813 41.7535 28.88C41.9455 28.1973 42.2015 27.728 42.5215 27.472C42.8415 27.216 43.3535 27.088 44.0575 27.088C45.1455 27.088 45.6895 27.4507 45.6895 28.176C45.6895 28.7093 45.4868 29.9467 45.0815 31.888C44.5695 34.2347 44.3135 35.824 44.3135 36.656C44.3135 37.296 44.3988 37.7867 44.5695 38.128C44.7402 38.4693 45.0282 38.64 45.4335 38.64C45.8175 38.64 46.2975 38.3733 46.8735 37.84C47.4495 37.3067 48.2175 36.464 49.1775 35.312C49.4335 35.0133 49.7215 34.864 50.0415 34.864C50.3188 34.864 50.5322 34.992 50.6815 35.248C50.8522 35.504 50.9375 35.856 50.9375 36.304C50.9375 37.1573 50.7348 37.8187 50.3295 38.288C48.2175 40.8693 46.2442 42.16 44.4095 42.16ZM60.4765 34.864C60.7538 34.864 60.9672 34.992 61.1165 35.248C61.2872 35.504 61.3725 35.856 61.3725 36.304C61.3725 37.1573 61.1698 37.8187 60.7645 38.288C59.8472 39.4187 58.8445 40.3467 57.7565 41.072C56.6898 41.7973 55.4738 42.16 54.1085 42.16C52.2312 42.16 50.8338 41.3067 49.9165 39.6C49.0205 37.8933 48.5725 35.6853 48.5725 32.976C48.5725 30.3733 48.9032 27.408 49.5645 24.08C50.2472 20.752 51.2392 17.8933 52.5405 15.504C53.8632 13.1147 55.4312 11.92 57.2445 11.92C58.2685 11.92 59.0685 12.4 59.6445 13.36C60.2418 14.2987 60.5405 15.6533 60.5405 17.424C60.5405 19.9627 59.8365 22.9067 58.4285 26.256C57.0205 29.6053 55.1112 32.9227 52.7005 36.208C52.8498 37.0827 53.0952 37.712 53.4365 38.096C53.7778 38.4587 54.2258 38.64 54.7805 38.64C55.6552 38.64 56.4232 38.3947 57.0845 37.904C57.7458 37.392 58.5885 36.528 59.6125 35.312C59.8685 35.0133 60.1565 34.864 60.4765 34.864ZM56.5405 15.088C56.0498 15.088 55.4952 15.9733 54.8765 17.744C54.2578 19.5147 53.7138 21.712 53.2445 24.336C52.7752 26.96 52.5192 29.4773 52.4765 31.888C53.9912 29.392 55.1965 26.896 56.0925 24.4C56.9885 21.8827 57.4365 19.5893 57.4365 17.52C57.4365 15.8987 57.1378 15.088 56.5405 15.088ZM64.738 42.864C63.6287 42.864 62.7753 42.608 62.178 42.096C61.602 41.584 61.314 41.008 61.314 40.368C61.314 39.8133 61.5167 39.3333 61.922 38.928C62.3273 38.5227 62.9247 38.32 63.714 38.32C63.9913 38.32 64.3113 38.352 64.674 38.416C65.058 38.4587 65.346 38.4907 65.538 38.512C65.5167 37.9573 65.3887 37.4347 65.154 36.944C64.9407 36.4533 64.6633 35.984 64.322 35.536C63.9807 35.0667 63.6607 34.6613 63.362 34.32C62.7007 35.5787 62.0393 36.624 61.378 37.456C60.738 38.288 60.034 39.0773 59.266 39.824C58.882 40.208 58.4767 40.4 58.05 40.4C57.7087 40.4 57.4313 40.2827 57.218 40.048C57.0047 39.792 56.898 39.4827 56.898 39.12C56.898 38.6933 57.0473 38.2987 57.346 37.936L57.762 37.424C58.9353 35.9733 59.8207 34.7787 60.418 33.84C60.7807 33.2213 61.2073 32.4 61.698 31.376C62.1887 30.3307 62.6687 29.2533 63.138 28.144C63.5433 27.2053 64.386 26.736 65.666 26.736C66.2633 26.736 66.6793 26.7893 66.914 26.896C67.1487 27.0027 67.266 27.1733 67.266 27.408C67.266 27.536 67.2233 27.7387 67.138 28.016C67.0527 28.2933 66.9353 28.5707 66.786 28.848C66.402 29.616 66.21 30.2667 66.21 30.8C66.21 31.12 66.3167 31.472 66.53 31.856C66.7647 32.24 67.1167 32.72 67.586 33.296C68.2687 34.192 68.7807 34.96 69.122 35.6C69.4847 36.2187 69.666 36.9013 69.666 37.648C69.666 37.8613 69.6447 38.16 69.602 38.544C70.6473 38.1387 71.874 37.0613 73.282 35.312C73.538 35.0133 73.826 34.864 74.146 34.864C74.4233 34.864 74.6367 34.992 74.786 35.248C74.9567 35.504 75.042 35.856 75.042 36.304C75.042 37.1147 74.8393 37.776 74.434 38.288C73.3673 39.6107 72.3433 40.5173 71.362 41.008C70.402 41.4773 69.2073 41.7333 67.778 41.776C66.9247 42.5013 65.9113 42.864 64.738 42.864ZM88.7623 32.176C89.0396 32.176 89.2529 32.3147 89.4023 32.592C89.5516 32.8693 89.6263 33.2213 89.6263 33.648C89.6263 34.672 89.3169 35.28 88.6983 35.472C87.4183 35.92 86.0103 36.176 84.4743 36.24C84.0689 38.032 83.2689 39.472 82.0743 40.56C80.8796 41.6267 79.5249 42.16 78.0103 42.16C76.7303 42.16 75.6316 41.8507 74.7143 41.232C73.8183 40.6133 73.1356 39.792 72.6663 38.768C72.1969 37.744 71.9622 36.6347 71.9622 35.44C71.9622 33.8187 72.2716 32.3787 72.8903 31.12C73.5089 29.84 74.3623 28.848 75.4503 28.144C76.5383 27.4187 77.7436 27.056 79.0663 27.056C80.6876 27.056 81.9889 27.6213 82.9703 28.752C83.9729 29.8613 84.5596 31.2373 84.7303 32.88C85.7329 32.816 86.9276 32.6027 88.3143 32.24C88.4849 32.1973 88.6343 32.176 88.7623 32.176ZM78.2663 38.768C78.9489 38.768 79.5356 38.4907 80.0263 37.936C80.5383 37.3813 80.8796 36.5813 81.0503 35.536C80.3889 35.088 79.8769 34.5013 79.5143 33.776C79.1729 33.0507 79.0023 32.2827 79.0023 31.472C79.0023 31.1307 79.0343 30.7893 79.0983 30.448H78.9383C78.0849 30.448 77.3703 30.864 76.7943 31.696C76.2396 32.5067 75.9623 33.6587 75.9623 35.152C75.9623 36.3253 76.1863 37.2213 76.6343 37.84C77.1036 38.4587 77.6476 38.768 78.2663 38.768ZM89.1518 42.16C88.3411 42.16 87.7651 41.7333 87.4238 40.88C87.1038 40.0267 86.9438 38.6613 86.9438 36.784C86.9438 34.0107 87.3384 31.376 88.1278 28.88C88.3198 28.2613 88.6291 27.8133 89.0558 27.536C89.5038 27.2373 90.1224 27.088 90.9118 27.088C91.3384 27.088 91.6371 27.1413 91.8078 27.248C91.9784 27.3547 92.0638 27.5573 92.0638 27.856C92.0638 28.1973 91.9038 28.9653 91.5838 30.16C91.3704 31.0133 91.1998 31.76 91.0718 32.4C90.9438 33.04 90.8371 33.8293 90.7518 34.768C91.4558 32.9333 92.2451 31.44 93.1198 30.288C93.9944 29.136 94.8478 28.3147 95.6798 27.824C96.5331 27.3333 97.3118 27.088 98.0158 27.088C98.6984 27.088 99.2104 27.2693 99.5518 27.632C99.9144 27.9733 100.096 28.4853 100.096 29.168C100.096 29.7227 99.9784 30.768 99.7438 32.304C99.5304 33.6053 99.3598 34.8427 99.2318 36.016C99.1038 37.168 99.0398 38.4587 99.0398 39.888C99.0398 40.6987 98.8691 41.2853 98.5278 41.648C98.2078 41.9893 97.6744 42.16 96.9278 42.16C96.2238 42.16 95.7118 41.9787 95.3918 41.616C95.0718 41.2533 94.9118 40.7093 94.9118 39.984C94.9118 39.1307 95.0611 37.7227 95.3598 35.76C95.6158 34.0533 95.7438 32.9653 95.7438 32.496C95.7438 32.1547 95.6264 31.984 95.3918 31.984C95.1144 31.984 94.7198 32.3467 94.2078 33.072C93.7171 33.776 93.2051 34.7147 92.6718 35.888C92.1598 37.0613 91.7438 38.2987 91.4238 39.6C91.1891 40.6027 90.9118 41.2853 90.5918 41.648C90.2931 41.9893 89.8131 42.16 89.1518 42.16ZM145.009 24.976C144.113 24.976 143.441 24.7733 142.993 24.368C142.545 23.9413 142.321 23.3547 142.321 22.608C142.321 21.8613 142.609 21.2427 143.185 20.752C143.783 20.24 144.519 19.984 145.393 19.984C146.183 19.984 146.823 20.176 147.313 20.56C147.804 20.944 148.049 21.488 148.049 22.192C148.049 23.0453 147.772 23.728 147.217 24.24C146.663 24.7307 145.927 24.976 145.009 24.976ZM144.753 42.16C143.367 42.16 142.353 41.6693 141.713 40.688C141.095 39.7067 140.785 38.4053 140.785 36.784C140.785 35.824 140.903 34.5973 141.137 33.104C141.393 31.5893 141.713 30.1813 142.097 28.88C142.289 28.1973 142.545 27.728 142.865 27.472C143.185 27.216 143.697 27.088 144.401 27.088C145.489 27.088 146.033 27.4507 146.033 28.176C146.033 28.7093 145.831 29.9467 145.425 31.888C144.913 34.2347 144.657 35.824 144.657 36.656C144.657 37.296 144.743 37.7867 144.913 38.128C145.084 38.4693 145.372 38.64 145.777 38.64C146.161 38.64 146.641 38.3733 147.217 37.84C147.793 37.3067 148.561 36.464 149.521 35.312C149.777 35.0133 150.065 34.864 150.385 34.864C150.663 34.864 150.876 34.992 151.025 35.248C151.196 35.504 151.281 35.856 151.281 36.304C151.281 37.1573 151.079 37.8187 150.673 38.288C148.561 40.8693 146.588 42.16 144.753 42.16ZM150.964 42.16C150.154 42.16 149.578 41.7333 149.236 40.88C148.916 40.0267 148.756 38.6613 148.756 36.784C148.756 34.0107 149.151 31.376 149.94 28.88C150.132 28.2613 150.442 27.8133 150.868 27.536C151.316 27.2373 151.935 27.088 152.724 27.088C153.151 27.088 153.45 27.1413 153.62 27.248C153.791 27.3547 153.876 27.5573 153.876 27.856C153.876 28.1973 153.716 28.9653 153.396 30.16C153.183 31.0133 153.012 31.76 152.884 32.4C152.756 33.04 152.65 33.8293 152.564 34.768C153.268 32.9333 154.058 31.44 154.932 30.288C155.807 29.136 156.66 28.3147 157.492 27.824C158.346 27.3333 159.124 27.088 159.828 27.088C161.215 27.088 161.908 27.7813 161.908 29.168C161.908 30 161.674 31.504 161.204 33.68C160.799 35.536 160.596 36.7627 160.596 37.36C160.596 38.2133 160.906 38.64 161.524 38.64C161.951 38.64 162.452 38.384 163.028 37.872C163.626 37.3387 164.415 36.4853 165.396 35.312C165.652 35.0133 165.94 34.864 166.26 34.864C166.538 34.864 166.751 34.992 166.9 35.248C167.071 35.504 167.156 35.856 167.156 36.304C167.156 37.1573 166.954 37.8187 166.548 38.288C165.631 39.4187 164.639 40.3467 163.572 41.072C162.527 41.7973 161.332 42.16 159.988 42.16C158.9 42.16 158.079 41.8507 157.524 41.232C156.97 40.592 156.692 39.6747 156.692 38.48C156.692 37.8827 156.842 36.816 157.14 35.28C157.418 33.936 157.556 33.008 157.556 32.496C157.556 32.1547 157.439 31.984 157.204 31.984C156.927 31.984 156.532 32.3467 156.02 33.072C155.53 33.776 155.018 34.7147 154.484 35.888C153.972 37.0613 153.556 38.2987 153.236 39.6C153.002 40.6027 152.724 41.2853 152.404 41.648C152.106 41.9893 151.626 42.16 150.964 42.16ZM180.951 34.928C181.229 34.928 181.442 35.0667 181.591 35.344C181.762 35.6 181.847 35.9307 181.847 36.336C181.847 36.8267 181.773 37.2107 181.623 37.488C181.474 37.7653 181.239 38.0107 180.919 38.224L174.775 42.352C173.965 46.768 172.898 50.2347 171.575 52.752C170.274 55.2907 168.61 56.56 166.583 56.56C165.495 56.56 164.61 56.2187 163.927 55.536C163.245 54.8747 162.903 54 162.903 52.912C162.903 51.9093 163.127 50.8853 163.575 49.84C164.045 48.7947 164.898 47.5893 166.135 46.224C167.394 44.88 169.165 43.3333 171.447 41.584L171.543 40.848C171.693 40.0587 171.863 38.928 172.055 37.456C171.629 38.992 171.031 40.1653 170.263 40.976C169.495 41.7653 168.685 42.16 167.831 42.16C166.871 42.16 166.082 41.7227 165.463 40.848C164.866 39.952 164.567 38.8427 164.567 37.52C164.567 35.92 164.674 34.4587 164.887 33.136C165.101 31.792 165.453 30.3733 165.943 28.88C166.157 28.24 166.455 27.7813 166.839 27.504C167.223 27.2267 167.831 27.088 168.663 27.088C169.133 27.088 169.453 27.1627 169.623 27.312C169.815 27.4613 169.911 27.6853 169.911 27.984C169.911 28.1547 169.794 28.7307 169.559 29.712C169.346 30.5013 169.175 31.216 169.047 31.856C168.877 32.7307 168.727 33.5733 168.599 34.384C168.471 35.1733 168.407 35.824 168.407 36.336C168.407 37.1467 168.631 37.552 169.079 37.552C169.399 37.552 169.794 37.232 170.263 36.592C170.754 35.952 171.266 34.9813 171.799 33.68C172.354 32.3787 172.887 30.7787 173.399 28.88C173.57 28.24 173.826 27.7813 174.167 27.504C174.53 27.2267 175.063 27.088 175.767 27.088C176.258 27.088 176.599 27.152 176.791 27.28C176.983 27.408 177.079 27.6213 177.079 27.92C177.079 28.4533 176.802 30.288 176.247 33.424L175.415 38.576C177.058 37.3387 178.658 36.208 180.215 35.184C180.493 35.0133 180.738 34.928 180.951 34.928ZM166.935 53.456C167.469 53.456 168.066 52.8373 168.727 51.6C169.389 50.3627 170.05 48.304 170.711 45.424C169.069 46.8107 167.874 48.0693 167.127 49.2C166.402 50.352 166.039 51.3547 166.039 52.208C166.039 52.5707 166.103 52.8693 166.231 53.104C166.381 53.3387 166.615 53.456 166.935 53.456ZM182.8 42.16C181.84 42.16 181.051 41.7227 180.432 40.848C179.835 39.952 179.536 38.8427 179.536 37.52C179.536 35.92 179.643 34.4587 179.856 33.136C180.069 31.792 180.421 30.3733 180.912 28.88C181.125 28.24 181.424 27.7813 181.808 27.504C182.192 27.2267 182.8 27.088 183.632 27.088C184.101 27.088 184.421 27.1627 184.592 27.312C184.784 27.4613 184.88 27.6853 184.88 27.984C184.88 28.1547 184.763 28.7307 184.528 29.712C184.315 30.5013 184.144 31.216 184.016 31.856C183.589 34.096 183.376 35.5893 183.376 36.336C183.376 36.784 183.429 37.104 183.536 37.296C183.643 37.4667 183.813 37.552 184.048 37.552C184.368 37.552 184.763 37.232 185.232 36.592C185.723 35.952 186.235 34.9813 186.768 33.68C187.323 32.3787 187.856 30.7787 188.368 28.88C188.539 28.24 188.795 27.7813 189.136 27.504C189.499 27.2267 190.032 27.088 190.736 27.088C191.227 27.088 191.568 27.152 191.76 27.28C191.952 27.3867 192.048 27.6 192.048 27.92C192.048 28.4533 191.781 29.9147 191.248 32.304C190.651 35.0347 190.352 36.72 190.352 37.36C190.352 37.7653 190.437 38.0853 190.608 38.32C190.779 38.5333 191.003 38.64 191.28 38.64C191.707 38.64 192.208 38.384 192.784 37.872C193.381 37.3387 194.171 36.4853 195.152 35.312C195.408 35.0133 195.696 34.864 196.016 34.864C196.293 34.864 196.507 34.992 196.656 35.248C196.827 35.504 196.912 35.856 196.912 36.304C196.912 37.1573 196.709 37.8187 196.304 38.288C195.387 39.4187 194.395 40.3467 193.328 41.072C192.283 41.7973 191.088 42.16 189.744 42.16C188.72 42.16 187.963 41.7653 187.472 40.976C187.003 40.1867 186.768 39.0773 186.768 37.648C186.405 39.0987 185.861 40.2187 185.136 41.008C184.411 41.776 183.632 42.16 182.8 42.16ZM197.997 42.16C196.781 42.16 195.789 41.68 195.021 40.72C194.275 39.76 193.901 38.5013 193.901 36.944C193.901 35.2373 194.296 33.6267 195.085 32.112C195.875 30.576 196.92 29.3493 198.221 28.432C199.544 27.4933 200.941 27.024 202.413 27.024C202.883 27.024 203.192 27.12 203.341 27.312C203.512 27.4827 203.651 27.8027 203.757 28.272C204.163 28.1867 204.611 28.144 205.101 28.144C205.613 28.144 206.008 28.272 206.285 28.528C206.563 28.784 206.701 29.1467 206.701 29.616C206.701 30.1067 206.595 30.96 206.381 32.176C206.147 33.4773 205.965 34.7253 205.837 35.92C205.709 37.0933 205.645 38.416 205.645 39.888C205.645 40.6987 205.475 41.2853 205.133 41.648C204.813 41.9893 204.28 42.16 203.533 42.16C202.808 42.16 202.264 41.9893 201.901 41.648C201.56 41.2853 201.389 40.7093 201.389 39.92L201.421 39.408C200.76 41.2427 199.619 42.16 197.997 42.16ZM199.245 38.928C199.843 38.928 200.387 38.512 200.877 37.68C201.368 36.848 201.805 35.3653 202.189 33.232L202.797 30C201.923 30.0213 201.112 30.3627 200.365 31.024C199.619 31.664 199.021 32.5173 198.573 33.584C198.125 34.6507 197.901 35.7813 197.901 36.976C197.901 37.616 198.019 38.1067 198.253 38.448C198.509 38.768 198.84 38.928 199.245 38.928Z" fill="white" fill-opacity="0.65098"/>
</svg>
